<svg width="36" height="36" viewBox="0 0 36 36" fill="none" xmlns="http://www.w3.org/2000/svg">
<g clip-path="url(#clip0_4334_230434)">
<path d="M18.0004 33.1756C26.3819 33.1756 33.1765 26.381 33.1765 17.9994C33.1765 9.61784 26.3819 2.82324 18.0004 2.82324C9.61882 2.82324 2.82422 9.61784 2.82422 17.9994C2.82422 26.381 9.61882 33.1756 18.0004 33.1756Z" fill="white"/>
<path fill-rule="evenodd" clip-rule="evenodd" d="M18 0C27.9403 0 36 8.05824 36 18C36 27.9403 27.9403 36 18 36C8.05824 36 0 27.9403 0 18C0 8.05824 8.05824 0 18 0ZM22.1126 5.32512C21.7066 5.19552 21.3754 5.436 21.3754 5.86224V6.91056C21.3754 7.19712 21.5914 7.52112 21.8592 7.61904C26.1677 9.19728 29.2507 13.3387 29.2507 18.1872C29.2507 23.0357 26.1677 27.1771 21.8592 28.7539C21.5654 28.8619 21.3754 29.1499 21.3754 29.4624V30.5107C21.3754 30.937 21.708 31.1774 22.1126 31.0478C27.5573 29.3083 31.5 24.2078 31.5 18.1858C31.5 12.1637 27.5573 7.06464 22.1126 5.32512ZM14.6246 5.86224C14.6246 5.436 14.2934 5.19552 13.8874 5.32512C8.44272 7.06464 4.5 12.1651 4.5 18.1872C4.5 24.2093 8.44272 29.3098 13.8874 31.0493C14.2934 31.1789 14.6246 30.9384 14.6246 30.5122V29.4638C14.6246 29.1787 14.4086 28.8533 14.1408 28.7554C9.83232 27.1771 6.74928 23.0357 6.74928 18.1886C6.74928 13.3416 9.83232 9.19872 14.1408 7.62048C14.4086 7.52256 14.6246 7.19712 14.6246 6.912V5.86224ZM18.563 9.1872H17.4384C17.1274 9.1872 16.8754 9.4392 16.8754 9.75024V11.4926C14.6448 11.8094 13.2034 13.2941 13.2034 15.1978C13.2034 17.663 14.6938 18.6192 17.8387 19.0426C19.9728 19.3925 20.579 19.8518 20.579 21.0658C20.579 22.2797 19.548 23.089 18.0965 23.089C16.1323 23.089 15.4858 22.2293 15.2482 21.1176C15.192 20.8541 14.9659 20.6611 14.6966 20.6611H13.4136C13.0896 20.6611 12.8376 20.952 12.8938 21.2702C13.2206 23.1422 14.423 24.516 16.8768 24.8486V26.6256C16.8768 26.9366 17.1288 27.1886 17.4398 27.1886H18.5645C18.8755 27.1886 19.1275 26.9366 19.1275 26.6256V24.8486C21.4502 24.48 22.9349 22.8629 22.9349 20.8627C22.9349 18.2333 21.335 17.3506 18.2448 16.9272C15.9638 16.596 15.5232 16.0632 15.5232 14.9962C15.5232 13.9853 16.295 13.2682 17.7854 13.2682C19.1333 13.2682 19.908 13.739 20.2277 14.8234C20.2997 15.0653 20.5157 15.2366 20.7677 15.2366H21.9514C22.2811 15.2366 22.5374 14.9328 22.4669 14.6117C22.0925 12.8981 20.9376 11.8685 19.1261 11.5445V9.75024C19.1246 9.4392 18.8726 9.1872 18.563 9.1872Z" fill="#2775CA"/>
</g>
<defs>
<clipPath id="clip0_4334_230434">
<rect width="36" height="36" fill="white"/>
</clipPath>
</defs>
</svg>
